# xmcd
#
# Track frame offsets: 
#        150
#        15829
#        31021
#        44488
#        55629
#        67783
#        81999
#        100829
#        111895
#        127275
#        139280
#
# Disc length: 2111 seconds
#
# Revision: 0
# Processed by: cddbd v1.5.2PL0 Copyright (c) Steve Scherf et al.
# Submitted via: ExactAudioCopy v1.3
#
DISCID=8b083d0b
DTITLE=Kenny Rogers - Kenny Rogers - For The Good Times
DYEAR=1900
DGENRE=Country
TTITLE0=For The God Times 
TTITLE1=Heed The Call 
TTITLE2=Ruby, Don't Take Your Love To Town
TTITLE3=Always Leaving Always Gone
TTITLE4=Me And Bobby McGee
TTITLE5=Bur You Know I Love You
TTITLE6=I Belive In Music 
TTITLE7=She Even Woke Me Up tTo Say Goodbuy
TTITLE8=Tell It All Bother 
TTITLE9=A Poem For My Lady
TTITLE10=The King Of Oak Street
EXTD=
EXTT0=
EXTT1=
EXTT2=
EXTT3=
EXTT4=
EXTT5=
EXTT6=
EXTT7=
EXTT8=
EXTT9=
EXTT10=
PLAYORDER=
